<svg width="300" height="300" viewBox="0 0 300 300" fill="none" xmlns="http://www.w3.org/2000/svg">
<circle cx="150" cy="150" r="150" fill="#D6F379"/>
<path d="M243 149.505C243.005 151.66 242.432 153.779 241.334 155.657C240.237 157.535 238.654 159.108 236.739 160.222L118.036 230.142C116.035 231.322 113.743 231.966 111.397 232.008C109.05 232.05 106.735 231.488 104.69 230.38C102.664 229.289 100.976 227.699 99.8007 225.772C98.6249 223.845 98.0034 221.651 98 219.417V79.5933C98.0034 77.3585 98.6249 75.1649 99.8007 73.2381C100.976 71.3113 102.664 69.7208 104.69 68.6302C106.735 67.5224 109.05 66.9603 111.397 67.0022C113.743 67.044 116.035 67.6882 118.036 68.8682L236.739 138.788C238.654 139.902 240.237 141.475 241.334 143.353C242.432 145.231 243.005 147.35 243 149.505Z" fill="black"/>
</svg>
