<svg width="1025" height="1025" viewBox="0 0 1025 1025" fill="none" xmlns="http://www.w3.org/2000/svg">
<path d="M418.534 310.746C573.406 314.953 692.618 332.788 803.212 388.886C818.839 396.899 837.672 408.319 843.882 422.745C849.692 436.169 846.286 464.218 836.469 471.229C822.645 481.247 794.796 486.055 780.37 478.642C666.57 419.737 545.357 400.904 419.736 405.913C369.448 407.917 318.959 417.333 269.471 426.95C237.214 433.361 210.567 429.755 201.151 396.496C190.933 361.234 215.977 343.202 246.03 337.592C313.548 325.572 381.869 316.355 418.533 310.745L418.534 310.746ZM441.576 463.418C551.77 470.03 655.752 492.669 750.719 546.765C766.346 555.58 782.775 577.019 784.377 593.849C786.983 623.901 752.522 634.119 716.859 615.085C593.642 549.57 463.213 534.945 327.174 557.985C311.947 560.591 295.919 569.807 282.094 567.002C264.464 563.195 248.636 550.373 232.007 541.557C242.425 525.729 250.239 499.081 263.863 495.675C321.965 481.25 382.072 473.635 441.576 463.418ZM421.141 616.487C536.143 618.29 621.095 635.921 699.032 679.999C719.268 691.419 743.109 706.645 723.475 731.288C715.661 741.105 683.805 742.308 669.78 734.694C569.203 681 462.616 674.387 352.823 688.212C334.591 690.416 316.358 698.63 298.928 696.827C282.298 695.024 266.671 683.804 250.642 676.793C261.661 663.369 270.878 640.73 284.301 637.925C337.595 626.105 392.291 620.695 421.141 616.487ZM1025 512.104C1025 653.352 974.911 774.166 874.936 874.14C774.961 974.114 654.348 1024.2 512.9 1024.2C371.652 1024.2 250.839 974.115 150.865 874.14C50.891 774.165 0.802002 653.552 0.802002 512.104C0.802002 370.856 50.89 250.042 150.865 150.068C251.041 50.0919 371.653 0.00488281 512.901 0.00488281C654.149 0.00488281 774.963 50.0929 874.937 150.068C974.913 250.044 1025 370.856 1025 512.104ZM960.891 512.104C960.891 388.086 917.216 282.501 829.864 195.149C742.711 107.795 636.925 64.1189 512.907 64.1189C389.089 64.1189 283.303 107.796 195.95 195.148C108.597 282.5 64.921 388.086 64.921 512.104C64.921 636.122 108.598 742.108 195.95 830.063C283.304 918.018 388.888 962.095 512.906 962.095C636.924 962.095 742.51 918.018 829.862 830.063C917.216 742.108 960.891 636.122 960.891 512.104Z" fill="white"/>
</svg>
